# ProBuilder 5.2.2
# https://unity3d.com/unity/features/worldbuilding/probuilder
# 2/28/2024 1:39:27 PM

mtllib ./Board.mtl
o Board

g Board
v 0.2500005 0.1115178 -1.62377
v 0.2500005 0.01767349 -1.658314
v -0.2499971 0.01767349 -1.658314
v -0.2499971 0.1115178 -1.62377
v -0.4853525 -0.02262932 -1.548823
v -0.4853525 0.07121497 -1.514279
v -0.4999971 -0.03932333 -1.50347
v -0.4999971 0.05452096 -1.468927
v 0.4853563 0.07121497 -1.514279
v 0.4853563 -0.02262932 -1.548823
v 0.5 0.05452096 -1.468927
v 0.5 -0.03932333 -1.50347
v -0.4461908 -0.004138231 -1.599058
v -0.4461908 0.08970606 -1.564514
v -0.3990364 0.006554067 -1.628105
v -0.3990364 0.1003984 -1.593562
v 0.4461951 0.08970606 -1.564514
v 0.4461951 -0.004138231 -1.599058
v 0.3990393 0.1003984 -1.593562
v 0.3990393 0.006554067 -1.628105
v -0.3497562 0.01208687 -1.643136
v -0.3497562 0.1059312 -1.608593
v 0.3497596 0.1059312 -1.608593
v 0.3497596 0.01208687 -1.643136
v -0.5 -0.1115178 -1.233207
v -0.5 -0.01151776 -1.233207
v -0.4999981 -0.0007959008 -1.299143
v -0.4999981 -0.09828383 -1.321416
v 0.5 -0.1115178 -1.233207
v 0.5 -0.09828383 -1.321416
v 0.5 -0.0007959008 -1.299143
v 0.5 -0.01151776 -1.233207
v -0.4999971 0.02359742 -1.384917
v -0.4999971 -0.07024688 -1.41946
v 0.5 -0.07024688 -1.41946
v 0.5 0.02359742 -1.384917
v -0.5 -0.01151776 0
v -0.5 -0.1115178 0
v 0.5 -0.1115178 0
v 0.5 -0.01151776 0
v -0.25 0.1115178 1.62377
v -0.25 0.01767349 1.658314
v 0.2499976 0.01767349 1.658314
v 0.2499976 0.1115178 1.62377
v 0.4853525 -0.02262932 1.548823
v 0.4853525 0.07121497 1.514279
v 0.4999971 -0.03932333 1.50347
v 0.4999971 0.05452096 1.468927
v -0.4853563 0.07121497 1.514279
v -0.4853563 -0.02262932 1.548823
v -0.5 0.05452096 1.468927
v -0.5 -0.03932333 1.50347
v 0.4461908 -0.004138231 1.599058
v 0.4461908 0.08970606 1.564514
v 0.3990364 0.006554067 1.628105
v 0.3990364 0.1003984 1.593562
v -0.4461946 0.08970606 1.564514
v -0.4461946 -0.004138231 1.599058
v -0.3990393 0.1003984 1.593562
v -0.3990393 0.006554067 1.628105
v 0.3497567 0.01208687 1.643136
v 0.3497567 0.1059312 1.608593
v -0.3497591 0.1059312 1.608593
v -0.3497591 0.01208687 1.643136
v 0.4999995 -0.1115178 1.233207
v 0.4999995 -0.01151776 1.233207
v 0.4999986 -0.0007959008 1.299143
v 0.4999986 -0.09828383 1.321416
v -0.5 -0.1115178 1.233207
v -0.5 -0.09828383 1.321416
v -0.5 -0.0007959008 1.299143
v -0.5 -0.01151776 1.233207
v 0.4999971 0.02359742 1.384917
v 0.4999971 -0.07024688 1.41946
v -0.5 -0.07024688 1.41946
v -0.5 0.02359742 1.384917

vt 0.1014712 0.9394761
vt 0.1014712 0.8148392
vt 0.1678771 0.8148392
vt 0.1678771 0.9394761
vt 0.06826815 0.761312
vt 0.06965837 0.885949
vt 0.07009342 0.7391403
vt 0.07148364 0.8637773
vt 0.1915464 0.885949
vt 0.1929366 0.761312
vt 0.1897211 0.8637773
vt 0.1911114 0.7391403
vt 0.1939341 0.7858704
vt 0.1939341 0.9105074
vt 0.1991353 0.761312
vt 0.1991353 0.885949
vt 0.1876715 0.8000712
vt 0.1876715 0.9247081
vt 0.07541412 0.9105074
vt 0.07541412 0.7858704
vt 0.07021299 0.885949
vt 0.07021299 0.761312
vt 0.08167699 0.9247081
vt 0.08167699 0.8000712
vt 0.1811264 0.8074194
vt 0.1811264 0.9320564
vt 0.08822197 0.9320564
vt 0.08822197 0.8074194
vt 0.0809705 0.643257
vt 0.0809705 0.7760695
vt 0.07831681 0.7903095
vt 0.07742038 0.6608334
vt 0.1802343 0.643257
vt 0.1837844 0.6608334
vt 0.182888 0.7903095
vt 0.1802343 0.7760695
vt 0.6034005 0.1291114
vt 0.603401 0.1478998
vt 0.4034498 0.1478998
vt 0.4034498 0.1291114
vt 0.06826815 0.643257
vt 0.2010806 0.643257
vt 0.2010804 0.6608334
vt 0.06826815 0.6608334
vt 0.07486475 0.8227069
vt 0.0734745 0.6980699
vt 0.1877303 0.6980699
vt 0.1863401 0.8227069
vt 0.5733597 0.04093429
vt 0.5832133 0.04521734
vt 0.5926419 0.05349451
vt 0.6004722 0.06780869
vt 0.6034005 0.08073181
vt 0.6034005 0.1046703
vt 0.4034498 0.1046703
vt 0.4034498 0.08073181
vt 0.4063779 0.06780869
vt 0.4142082 0.05349451
vt 0.423637 0.04521734
vt 0.4334906 0.04093429
vt 0.4534375 0.03660959
vt 0.5534126 0.03660959
vt 0.2010803 0.6980699
vt 0.06826815 0.6980699
vt 0.2010803 0.7391403
vt 0.06826815 0.7391403
vt 0.1306024 0.7760695
vt 0.1306024 0.643257
vt 0.603401 0.4992996
vt 0.4034498 0.4992996
vt 0.06826818 0.6928889
vt 0.2010807 0.6928889
vt 0.4034502 0.8694878
vt 0.40345 0.8506992
vt 0.603401 0.8506992
vt 0.603401 0.8694878
vt 0.4334912 0.957665
vt 0.4236376 0.953382
vt 0.4142091 0.9451048
vt 0.4063787 0.9307905
vt 0.4034503 0.9178674
vt 0.4034503 0.8939289
vt 0.603401 0.8939289
vt 0.603401 0.9178674
vt 0.600473 0.9307905
vt 0.5926426 0.9451048
vt 0.5832139 0.953382
vt 0.5733603 0.957665
vt 0.5534133 0.9619898
vt 0.4534381 0.9619898
vt 0.2010806 0.7425208
vt 0.06826815 0.7425208

vn 0 0.345434 -0.9384431
vn -0.9570249 0.100178 -0.2721535
vn 0.9570301 0.1001723 -0.2721379
vn -0.8070769 0.2039615 -0.5540997
vn -0.5487545 0.2887762 -0.7845232
vn 0.8070798 0.2039601 -0.5540962
vn 0.5487471 0.2887779 -0.7845278
vn -0.3091015 0.3285188 -0.8924862
vn 0.3091003 0.3285189 -0.8924866
vn 0.1600302 0.3409821 -0.9263485
vn -0.1600292 0.3409822 -0.9263487
vn -1 0 -2.162285E-05
vn 1 0 0
vn 0 0.9870356 0.1605012
vn 0 -0.9889323 -0.1483676
vn -1.731936E-06 0.9384439 0.3454316
vn 0 0.9618595 0.273544
vn 0 -0.9614607 -0.2749424
vn -1.219946E-07 -0.9384428 -0.3454348
vn 0 1 0
vn 0 -1 0
vn 0 0.345434 0.9384431
vn 0.9570249 0.100178 0.2721535
vn -0.9570301 0.1001723 0.2721379
vn 0.8070769 0.2039615 0.5540997
vn 0.5487545 0.2887762 0.7845232
vn -0.8070763 0.2039617 0.5541005
vn -0.5487509 0.2887771 0.7845255
vn 0.3091042 0.3285185 0.8924854
vn -0.3090976 0.3285192 0.8924875
vn -0.1600302 0.3409821 0.9263485
vn 0.1600292 0.3409822 0.9263487
vn 0 0.9870356 -0.1605012
vn 0 -0.9889323 0.1483676
vn 1.73198E-06 0.9384439 -0.3454316
vn 0 0.9618595 -0.273544
vn 0 -0.9614607 0.2749424
vn 1.219946E-07 -0.9384428 0.3454348

usemtl board_1
f 6/52/16 8/53/16 33/54/16
f 6/52/16 33/54/16 14/51/16
f 33/54/16 4/62/16 14/51/16
f 1/61/16 4/62/16 33/54/16
f 33/54/16 36/55/16 1/61/16
f 36/55/16 23/60/16 1/61/16
f 36/55/16 19/59/16 23/60/16
f 36/55/16 17/58/16 19/59/16
f 36/55/16 9/57/16 17/58/16
f 36/55/16 11/56/16 9/57/16
f 14/51/16 4/62/16 22/49/16
f 22/49/16 16/50/16 14/51/16
f 13/13/19 15/17/19 21/25/19
f 21/25/19 3/3/19 13/13/19
f 10/22/19 12/66/19 35/64/19
f 18/20/19 10/22/19 35/64/19
f 20/24/19 18/20/19 35/64/19
f 24/28/19 20/24/19 35/64/19
f 2/2/19 24/28/19 35/64/19
f 2/2/19 35/64/19 34/63/19
f 34/63/19 3/3/19 2/2/19
f 13/13/19 3/3/19 34/63/19
f 13/13/19 34/63/19 5/15/19
f 34/63/19 7/65/19 5/15/19
f 46/80/35 48/81/35 73/82/35
f 46/80/35 73/82/35 54/79/35
f 73/82/35 44/90/35 54/79/35
f 41/89/35 44/90/35 73/82/35
f 73/82/35 76/83/35 41/89/35
f 76/83/35 63/88/35 41/89/35
f 76/83/35 59/87/35 63/88/35
f 76/83/35 57/86/35 59/87/35
f 76/83/35 49/85/35 57/86/35
f 76/83/35 51/84/35 49/85/35
f 54/79/35 44/90/35 62/77/35
f 62/77/35 56/78/35 54/79/35
f 53/13/38 55/17/38 61/25/38
f 61/25/38 43/3/38 53/13/38
f 50/22/38 52/66/38 75/64/38
f 58/20/38 50/22/38 75/64/38
f 60/24/38 58/20/38 75/64/38
f 64/28/38 60/24/38 75/64/38
f 42/2/38 64/28/38 75/64/38
f 42/2/38 75/64/38 74/63/38
f 74/63/38 43/3/38 42/2/38
f 53/13/38 43/3/38 74/63/38
f 53/13/38 74/63/38 45/15/38
f 74/63/38 47/65/38 45/15/38
f 2/2/1 3/3/1 4/4/1
f 4/4/1 1/1/1 2/2/1
f 7/7/2 8/8/2 6/6/2
f 6/6/2 5/5/2 7/7/2
f 11/11/3 12/12/3 10/10/3
f 10/10/3 9/9/3 11/11/3
f 5/15/4 6/16/4 14/14/4
f 14/14/4 13/13/4 5/15/4
f 13/13/5 14/14/5 16/18/5
f 16/18/5 15/17/5 13/13/5
f 9/21/6 10/22/6 18/20/6
f 18/20/6 17/19/6 9/21/6
f 17/19/7 18/20/7 20/24/7
f 20/24/7 19/23/7 17/19/7
f 15/17/8 16/18/8 22/26/8
f 22/26/8 21/25/8 15/17/8
f 19/23/9 20/24/9 24/28/9
f 24/28/9 23/27/9 19/23/9
f 23/27/10 24/28/10 2/2/10
f 2/2/10 1/1/10 23/27/10
f 21/25/11 22/26/11 4/4/11
f 4/4/11 3/3/11 21/25/11
f 27/31/12 28/32/12 25/29/12
f 25/29/12 26/30/12 27/31/12
f 30/34/13 31/35/13 32/36/13
f 32/36/13 29/33/13 30/34/13
f 31/40/14 27/37/14 26/38/14
f 26/38/14 32/39/14 31/40/14
f 28/43/15 30/44/15 29/41/15
f 29/41/15 25/42/15 28/43/15
f 33/45/12 34/46/12 28/32/12
f 28/32/12 27/31/12 33/45/12
f 8/8/12 7/7/12 34/46/12
f 34/46/12 33/45/12 8/8/12
f 35/47/13 36/48/13 31/35/13
f 31/35/13 30/34/13 35/47/13
f 12/12/13 11/11/13 36/48/13
f 36/48/13 35/47/13 12/12/13
f 36/55/17 33/54/17 27/37/17
f 27/37/17 31/40/17 36/55/17
f 34/63/18 35/64/18 30/44/18
f 30/44/18 28/43/18 34/63/18
f 26/30/12 25/29/12 38/68/12
f 38/68/12 37/67/12 26/30/12
f 29/33/13 32/36/13 40/67/13
f 40/67/13 39/68/13 29/33/13
f 32/39/20 26/38/20 37/69/20
f 37/69/20 40/70/20 32/39/20
f 25/41/21 29/42/21 39/72/21
f 39/72/21 38/71/21 25/41/21
f 42/2/22 43/3/22 44/4/22
f 44/4/22 41/1/22 42/2/22
f 47/7/23 48/8/23 46/6/23
f 46/6/23 45/5/23 47/7/23
f 51/11/24 52/12/24 50/10/24
f 50/10/24 49/9/24 51/11/24
f 45/15/25 46/16/25 54/14/25
f 54/14/25 53/13/25 45/15/25
f 53/13/26 54/14/26 56/18/26
f 56/18/26 55/17/26 53/13/26
f 49/21/27 50/22/27 58/20/27
f 58/20/27 57/19/27 49/21/27
f 57/19/28 58/20/28 60/24/28
f 60/24/28 59/23/28 57/19/28
f 55/17/29 56/18/29 62/26/29
f 62/26/29 61/25/29 55/17/29
f 59/23/30 60/24/30 64/28/30
f 64/28/30 63/27/30 59/23/30
f 63/27/31 64/28/31 42/2/31
f 42/2/31 41/1/31 63/27/31
f 61/25/32 62/26/32 44/4/32
f 44/4/32 43/3/32 61/25/32
f 67/31/13 68/32/13 65/29/13
f 65/29/13 66/30/13 67/31/13
f 70/34/12 71/35/12 72/36/12
f 72/36/12 69/33/12 70/34/12
f 71/76/33 67/73/33 66/74/33
f 66/74/33 72/75/33 71/76/33
f 68/43/34 70/44/34 69/41/34
f 69/41/34 65/42/34 68/43/34
f 73/45/13 74/46/13 68/32/13
f 68/32/13 67/31/13 73/45/13
f 48/8/13 47/7/13 74/46/13
f 74/46/13 73/45/13 48/8/13
f 75/47/12 76/48/12 71/35/12
f 71/35/12 70/34/12 75/47/12
f 52/12/12 51/11/12 76/48/12
f 76/48/12 75/47/12 52/12/12
f 76/83/36 73/82/36 67/73/36
f 67/73/36 71/76/36 76/83/36
f 74/63/37 75/64/37 70/44/37
f 70/44/37 68/43/37 74/63/37
f 66/30/13 65/29/13 39/68/13
f 39/68/13 40/67/13 66/30/13
f 69/33/12 72/36/12 37/67/12
f 37/67/12 38/68/12 69/33/12
f 72/75/20 66/74/20 40/70/20
f 40/70/20 37/69/20 72/75/20
f 65/91/21 69/92/21 38/71/21
f 38/71/21 39/72/21 65/91/21

